<?xml version="1.0" encoding="iso-8859-1"?>
<!-- Generator: Adobe Illustrator 19.0.0, SVG Export Plug-In . SVG Version: 6.00 Build 0)  -->
<svg version="1.1" id="Layer_1" xmlns="http://www.w3.org/2000/svg" xmlns:xlink="http://www.w3.org/1999/xlink" x="0px" y="0px"
	 viewBox="0 0 473.935 473.935" style="enable-background:new 0 0 473.935 473.935;" xml:space="preserve">
<circle style="fill:#EDC92C;" cx="236.967" cy="236.967" r="236.967"/>
<path style="fill:#DC3735;" d="M246.853,356.495c-16.531,16.531-56.542,32.213-73.066,15.682
	c-16.524-16.524,74.675-111.019,91.206-94.495c0.393,0.393,0.681,0.883,1.036,1.313c3.487-9.545,7.431-18.645,11.547-27.079
	c-24.221-77.395-87.984-197.593-87.984-197.593S92.467,173.892,92.467,297.21c0,53.687,43.461,97.156,97.118,97.17
	c26.582-0.015,50.645-10.679,68.179-27.947c-2.301-5.68-3.727-11.79-4.18-18.181C251.37,351.429,249.102,354.246,246.853,356.495z"
	/>
<path style="fill:#E84849;" d="M173.784,372.177c16.524,16.531,56.535,0.849,73.066-15.682c2.253-2.249,4.516-5.066,6.731-8.243
	c-0.101-1.422-0.221-2.836-0.221-4.284c0-22.484,5.268-44.752,12.666-64.972c-0.359-0.427-0.644-0.917-1.036-1.313
	C248.458,261.158,157.26,355.653,173.784,372.177z"/>
<path style="fill:#DC3735;" d="M314.95,203.995c0,0-55.973,68.909-55.973,139.98c0,30.937,25.044,55.988,55.973,55.996
	c30.948-0.015,56.003-25.066,56.003-56.003C370.953,309.562,314.95,203.995,314.95,203.995z"/>
<path style="fill:#E84849;" d="M358.403,332.72c9.53,9.523-0.935,35.899-10.451,45.422c-9.53,9.523-32.587,18.563-42.11,9.04
	C296.32,377.659,348.881,323.197,358.403,332.72z"/>
<g>
</g>
<g>
</g>
<g>
</g>
<g>
</g>
<g>
</g>
<g>
</g>
<g>
</g>
<g>
</g>
<g>
</g>
<g>
</g>
<g>
</g>
<g>
</g>
<g>
</g>
<g>
</g>
<g>
</g>
</svg>
